<svg width="700" height="480" xmlns="http://www.w3.org/2000/svg" xml:space="preserve"><g fill="#fff"><path d="M177.206 190.654h.08l-.04-.041a.235.235 0 0 0-.04.041"/><path d="M178.849 189c-.492-.41-1.071-.63-1.603-.183-.486.81-1.27 1.331-2.083 1.837h4.136c.01-.149.03-.297.03-.446a5.394 5.394 0 0 1-.48-1.208M129.814 262.976c.008-.01.014-.02.02-.026h-.05c.014.056.024.096.03.13v-.104M94.132 193.896h26.016l17.611 41.228.365-.192v-41.036h15.859v65.32h-23.306l-19.347-40.709h-.194v40.71H94.132v-65.321M168.17 193.936h18.5v65.32h-18.5v-65.32M215.832 208.796h8.217c11.866 0 18.407 5.764 18.407 17.657 0 13.082-5.238 18.113-18.407 18.39h-8.217v-36.047zm-17.378 50.682h28.677c20.275 0 32.7-11.53 32.7-32.936 0-20.215-12.24-32.384-32.7-32.384h-28.677v65.32M82.344 232.173c0 19.019-8.73 28.488-28.582 28.488-19.848 0-28.58-9.47-28.58-28.488v-38.506h17.094v39.513c0 8.457 3.124 12.774 11.486 12.774s11.487-4.317 11.487-12.774v-39.513h17.095v38.506M297.835 192.404c20.742 0 32.446 15.21 32.446 34.287 0 19.085-11.704 34.291-32.446 34.291-20.74 0-32.446-15.206-32.446-34.29 0-19.078 11.705-34.288 32.446-34.288zm0 53.828c11.06 0 15.306-9.768 15.306-19.54 0-9.77-4.245-19.54-15.306-19.54-11.06 0-15.3 9.77-15.3 19.54 0 9.772 4.24 19.54 15.3 19.54M231.574 142.567c.873-.98-.542-2.014-.268-3.257-.377-1.141-1.358-1.633-2.44-1.956-1.14 1.085-2.122-.978-3.154.27-.05.598.053 1.142.387 1.576 2.277.814 2.549 4.127 5.475 3.367M192.383 123.837l-7.817 3.365c-.654-.272-1.898-.597-2.33.272-.332.272 0 .65.104.925 2.881 3.69 7.87 1.626 11.458.918 2.602 1.087 5.102-.215 7.056-1.843v-.381c-1.845-2.605-5.32-2.987-8.47-3.256"/><path d="M277.03 190.654h5.649c-12.519-46.504-54.973-80.731-105.433-80.733-50.461.002-92.916 34.23-105.437 80.733h5.656a103.551 103.551 0 0 1 24.204-42.641l11.796 11.8a86.953 86.953 0 0 0-18.524 30.841h5.718a81.678 81.678 0 0 1 16.623-27.024l11.022 11.022a66.165 66.165 0 0 0-10.742 16.002h6.052a60.71 60.71 0 0 1 8.521-12.173l11.649 11.648c-.246.146-.47.32-.676.525h8.753a.555.555 0 0 1 .043-.041c.198-.19.393-.399.591-.584-.238-.05-.482-.11-.724-.16a38.715 38.715 0 0 1 22.777-9.464v10.25h5.402v-10.25a38.678 38.678 0 0 1 22.194 8.965l-1.28 1.284h10.217a39.19 39.19 0 0 0-1.2-1.372l11.665-11.67a61.506 61.506 0 0 1 7.161 9.32c-.04.18.189.29.136.465.04.069-.175.208-.14.281.21 1-.63 2.03-1.146 2.976h11.784c-.06-.712-.585-1.446-1.359-1.404-.867-.27-1.845 0-1.845-1.193.492-.762 1.736-1.52 1.468-2.714-.654-.815-1.686-.107-2.5-.165-.218-1.305 2.229-2.711.11-3.908-1.224-.228-2.004 1.012-3.075 1.048-.348-.78-5.228-7.063-5.605-7.225-.06-.028-.109-.084-.174-.121-.143-2.935-3.694-4.708-3.902-7.76-1.195-1.086-.219-3.094-1.796-4.017-.863-.652-1.845-1.414-3.035-.922-1.36-1.954-2.936-3.857-4.781-5.593-.542-.164-.923.161-1.19.488.267 1.52 2.062 2.387 1.954 4.074-.273-.056-.487 0-.655.215.178 1.286 1.045 2.353 1.92 3.294a65.778 65.778 0 0 0-34.926-11.69v-15.586a81.346 81.346 0 0 1 32.595 7.96c.004.09.024.183.024.275l.01.003c1.25 1.901 3.69 2.824 4.017 5.212-1.25 3.311 4.4 3.258 1.845 6.622-.169 1.086.76 1.685 1.14 2.498.322.923-.168 2.335.923 2.877 1.955.434 2.768-2.173 4.722-1.465 2.549 1.843 3.094 4.885 3.094 7.71.328 1.79 1.846 2.986 3.423 3.634 3.2-.975 1.68 2.607 3.908 3.53 2.5.327 3.744 3.529 6.513 3.255 2.444 1.849 3.8 4.563 5.97 6.624-.054.488.22.923.654 1.085 1.306.326 2.115-.597 3.256-.65.103.212.37.589.417.563.48 1.135.936 2.284 1.372 3.446h5.714a86.25 86.25 0 0 0-2.718-6.898c.168-.077.1-1.194-.12-1.67-.158-4.67-4.665-7.819-6.615-11.888-.933-.637-1.68-1.408-2.361-2.231a37.833 37.833 0 0 1-1.439-1.889c-.66-.907-1.329-1.811-2.106-2.634a90.393 90.393 0 0 0-3.984-4.494l.135-.133.143-.027c-.02-.02-.03-.048-.05-.068l11.572-11.566a103.613 103.613 0 0 1 25.027 43.498zm-102.482-15.669a44.07 44.07 0 0 0-26.949 11.322l-11.669-11.67c10.227-9.503 23.715-15.518 38.618-16.171v16.52zm0-21.923c-16.389.66-31.236 7.28-42.437 17.755l-11.022-11.022c14.04-13.294 32.755-21.646 53.46-22.32v15.587zm0-20.99c-22.182.681-42.266 9.638-57.278 23.904l-11.798-11.796c18.043-17.281 42.282-28.101 69.076-28.79v16.682zm43.133 41.761-11.689 11.695c-7.092-6.075-16.128-9.943-26.042-10.543v-16.519c14.476.633 27.62 6.329 37.731 15.367zm20.202-20.198c-.397-.885-1.682-1.551-2.123-2.44-.327-2.984-3.204-5.807-5.753-7.328-2.123-.38-2.609-3.583-5.218-2.603-2.166-1.85-4.886-.492-7.003.54v.216c-10.891-5.74-23.161-9.214-36.175-9.858.198-.157.39-.313.605-.447.277-.575.059-1.557.02-2.182-.332-.54-.977-1.192-1.74-.758-.274.38-.546 1.304-.546 1.304V115.39c26.365.679 50.255 11.163 68.21 27.969l-10.277 10.276M59.293 161.076c6.025-5.646 12.814-9.988 18.133-16.557 5.916-8.253 11.455-17.099 19.432-24.102-10.858 4.234-23.013 8.251-29.582 19.706-4.616 6.186-4.725 14.223-7.983 20.953"/><path d="M58.155 178.177c11.563-8.145 23.669-19.544 23.832-34.036-3.746 10.42-15.038 14.819-22.694 21.875-3.906 3.855-7.171 8.604-8.846 13.026-.405 1.07-.276-.213-.276-.213.927-4.183 2.825-7.926 3.91-11.995 3.42-11.025 2.717-24.267 13.465-31.65-5.537 1.41-10.479 4.774-14.331 9.607-8.957 9.392-8.035 23.832-6.787 36.48.228 3.245-.29 6.342-.322 9.383h1.048c2.694-4.624 6.78-8.786 11-12.477M63.856 189.63c2.44-5.427 4.29-11.343 4.992-17.208-.977 2.498-2.659 4.669-4.557 6.785-4.042 3.672-8.329 7.392-12.005 11.447h11.015c.182-.341.379-.676.555-1.024M44.583 154.942c-.274-.055-.435.163-.65.272-7.492 9.553-12.813 20.03-12.485 32.843a32.725 32.725 0 0 0-.06 2.597h11.126c-1.135-12.311-4.873-25.163 2.069-35.712M308.687 190.553c-2.337-11.51 1.355-22.636-1.196-34.037-2.166-10.098-11.342-21.114-21.876-23.289 4.285 2.878 7.489 7.384 9.116 11.945 3.204 10.53 5.297 22.884 9.393 31.538.208.438.08 1.15-.268.273-.744-1.864-2.45-4.671-5.326-8.578-8.035-10.532-22.03-13.3-27.249-25.838 1.306 7.49 3.587 14.546 8.848 20.355 9.067 9.768 22.25 15.524 28.443 27.732h.016l.1-.1M314.277 159.013c-1.682-2.116-2.769-4.83-5.213-6.243 2.761 3.83 3.74 7.95 4.295 13.195.556 5.247-.258 9.687-.575 12.659-.312 2.974-.641 7.997-.724 12.03h10.977c.569-11.326-2.48-23.126-8.76-31.64M284.96 170.738c.873 4.888 2.39 9.554 4.186 14.062.833 2.015 1.855 3.955 2.976 5.854h12.046c-6.194-6.745-14.913-11.982-19.208-19.916"/><path d="M275.348 141.83c5.09 6.433 12.217 12.5 19.115 17.457 0 0-.77-1.617-1.022-2.867-1.399-7.028-6.2-18.955-14.175-26.07-6.788-6.078-15.315-8.088-23.235-11.454 0 0 .48.795 3.724 3.77 3.24 2.975 10.515 12.727 15.593 19.163M50.033 269.215a73.946 73.946 0 0 1-.665-6.265h-3.771c1.333 1.821 3.386 4.331 4.436 6.265M310.344 268.293a62.554 62.554 0 0 0-2.59 2.946c-3.074 3.72-5.683 7.622-8.352 11.496-.928 1.35-3.461 4.524-4.652 5.982-.237.287-.763.744-.426.198 4.007-6.388 6.245-12.375 6.626-19.7.063-2.143-.05-4.22-.268-6.265h-9.463c-1.1 13.907-1.329 28.812-8.243 40.299 6.954-5.377 14.28-9.77 21.502-14.493 9.903-6.745 17.983-15.583 22.57-25.806H315.78a337.43 337.43 0 0 1-5.436 5.343"/><path d="M54.703 264.004c-.758 7.542.382 14.982 3.529 21.221.655 1.954 2.444 3.58 2.878 5.485-.797-.02-4.67-5.911-6.786-8.957-4.202-6.973-10.68-12.766-16.512-18.803h-10.37c.004.006.004.016.01.026 7.164 20.196 29.207 30.66 45.383 41.691-1.52-3.859-3.855-7.44-4.995-11.457-2.306-9.661-2.752-20.077-3.785-30.26h-9.233c-.042.354-.088.7-.12 1.054M309.143 293.478c-12.593 9.443-27.278 12.29-39.469 24.322-1.041 1.032-3.868 2.847-3.908 2.113 4.345-3.8 8.308-8.461 11.08-13.292 7.162-12.161 4.454-28.399 10.693-40.937-3.799 4.182-6.517 8.798-9.77 13.193-10.26 15.523-9.394 35.937-24.759 49.13 9.066-3.095 19.055-3.908 28.395-6.408 18.077-5.753 37.241-23.836 39.632-43.1-2.232 5.694-6.844 10.962-11.894 14.98"/><path d="M103.018 328.88c-12.539-10.108-14.601-25.195-20.033-38.547-3.635-8.203-9.118-15.692-15.145-22.907 6.622 13.246 3.529 30.506 12.377 42.826 2.444 4.076 6.464 7.657 9.935 10.802 0 0 .296.228-.164.168-1.137-.158-6.08-3.58-8.848-6.03-15.147-12.43-37.728-14.116-46.74-34.52 2.444 14.978 14.115 28.608 27.198 36.642 11.943 8.352 27.85 7.112 41.42 11.566M247.257 332.134c-4.83.486-13.986 2.797-14.165 2.112-.179-.684 7.598-2.003 10.911-4.176 13.351-6.675 14.22-21.445 22.309-31.81-10.911 7.439-19.65 17.15-29.48 26.593-6.676 6.03-14.814 8.53-23.176 10.425v.11l3.366.436c17.534 2.827 35.938 11.288 54.23 4.394 10.643-3.74 22.312-12.647 26.98-23.29-12.538 15.255-33.061 12.379-50.975 15.206"/><path d="M135.373 336.964c2.279-.595 5.046-.377 7.165-1.14-8.792-1.796-17.152-4.613-24.104-10.693-9.663-9.067-18.457-18.46-28.932-25.404 8.195 11.01 10.423 27.358 25.512 32.674 2.498 1.3 7.975 1.994 7.983 2.61.008.614-5.376-.655-8.088-1.032-19.273-4.285-42.887 1.19-57.328-15.256 5.484 10.752 16.72 19.382 27.631 22.804 16.774 5.694 34.363-.654 50.16-4.563"/><path d="m236.345 347.39-12.647-5.05c-11.09-5.891-25.334-8.54-38.477-6.268-1.388.238-3.283 1.944-6.418 1.944-3.124 0-5.079-1.617-6.461-1.944-17.387-2.321-35.666 4.96-51.575 11.853-11.832 4.672-27.357 3.908-37.782-3.253 5.158 6.467 12.052 10.415 19.164 13.133 13.248 5.267 28.99 1.686 39.953-5.972 9.391-5.257 17.487-15.632 29.863-11.724-12.593 5.862-24.108 14.065-34.53 24.59l6.514 5.376c7.598-10.147 17.698-18.46 27.907-24.917 2.226-1.19 4.557-2.659 7.003-2.986 12.542 6.13 23.77 16.615 33.872 27.526 2.169-1.736 4.456-3.64 6.246-5.644-10.535-10.157-21.986-18.083-34.367-23.836 2.065-.595 4.4-.704 6.79-.655 6.677-.426 11.23 4.295 16.394 7.549 12.7 9.661 29.692 16.02 45.98 9.939 7.33-2.609 14.383-7.221 19.54-13.679-10.037 7.162-25.244 8.352-36.969 4.018M271.291 262.95a104.027 104.027 0 0 1-19.114 27.939l-11.795-11.804a87.239 87.239 0 0 0 12.102-16.135h-6.328a81.497 81.497 0 0 1-9.176 11.85c.14-.318.288-.645.453-.972.123-1.657-1.27-3.155-1.028-4.996-1.353-1.303-1.409-3.852-3.8-3.797-.813-.11-1.14.649-1.14 1.304-.05.376.105.803-.159 1.08-.03.477-.049.953-.099 1.413.03.363.04.737.026 1.107l-5.694-5.693c.395-.423.774-.863 1.159-1.296h-59.635c-1.353.552-2.623 1.335-3.724 2.52-.655 1.464-.436 3.636-2.39 4.287.109 3.089 2.876 5.697 4.83 7.923l.01.006c.1.486.199.992.274 1.102-11.61-2.163-22.045-7.625-30.322-15.376l.459-.462h-6.505a.327.327 0 0 1-.02.026v.103c-.004-.033-.016-.073-.03-.129h-34.36c.208.22.454.383.791.403 2.28-.599 1.464 2.603 3.146 3.527 1.306.812 2.01 2.772 3.909 1.85l.653-.814c.595.426.107 1.518.652 2.113.923 1.736 2.768 2.986 4.557 3.472 1.23 1.398 2.494 2.989 3.865 4.245.147.159.282.327.426.48l-11.798 11.8a103.878 103.878 0 0 1-18.31-27.076h-5.959c16.885 38.473 55.313 65.355 100.029 65.355 44.706 0 83.134-26.882 100.027-65.355h-5.982zm-96.743 59.88c-26.894-.685-51.202-11.576-69.265-28.965l11.796-11.794c15.034 14.373 35.188 23.4 57.47 24.084v16.674zm0-22.081c-20.614-.665-39.26-8.967-53.277-22.16h-.002c-.117-.173-.24-.347-.307-.397l.317-.317c.883.159 1.575.764 2.286 1.32.234.132.456.297.68.475.657.407 1.385.635 2.337.348 2.932-.328 5.214-2.66 8.307-2.173 1.462.056 3.269-.01 4.227-1.319a6.7 6.7 0 0 1-.371-1.15c-.085-.447-.172-.894-.258-1.34-.349-.446-.7-.883-.829-1.402.12.093.349-.04.52-.205 9.506 6.974 20.936 11.477 33.354 12.538.104.248.209.496.308.744.278.02.555.05.833.06l1.305-.546v.238c.173-.159.366-.248.57-.288v15.574zm45.46-30.883c.189-.185.447-.635.387-.68.436-.378.883-.744 1.31-1.137l7.895 7.902c.163 1.021.605 1.874 1.703 2.38.089.04.176.06.267.08.13-.01.252 0 .381 0 .03 0 .066-.01.1-.017l.674.681a83.064 83.064 0 0 1-10.029 7.906c.14-.853 1.76-1.37.953-2.51-2.821-2.608 1.735-4.781 2.609-7.172-.497-2.549-3.313-3.957-5.486-4.665-1.031-.602-.704-1.9-.764-2.768zm-40.064 16.718c.397.209.695.566 1.032.883.065.05.129.099.188.158 1.96.794 5.303-.813 6.388 1.4-.6 1.249-1.577 2.45-1.2 3.907.813 2.014 2.014 4.673 4.563 4.831.65.873 1.517 1.091 2.39 1.419-.714.119-2.126.376-2.082.416a82.655 82.655 0 0 1-11.279 1.15v-14.164zm0 36.245v-16.674a88.565 88.565 0 0 0 15.673-1.904c-.01-.01-.01-.02-.02-.02.664.079 1.448.158 1.448.158 4.126.814 7.063 7.5 11.62 3.422 1.579-1.894 4.346-1.736 5.322-4.344 2.659-.972 3.313-3.69 5.208-5.426.535-1.528 1.438-2.668 2.52-3.61.025-.17.069-.338.099-.497a87.709 87.709 0 0 0 14.73-11.04l11.794 11.794c-17.968 16.903-41.935 27.467-68.394 28.141M305.245 269.215a75.63 75.63 0 0 0 .665-6.265h3.77c-1.34 1.821-3.387 4.331-4.435 6.265"/></g><g fill="#fff"><path d="M470.742 372.367c-9.961 0-16.399-7.92-16.399-20.178 0-11.495 5.712-18.357 15.28-18.357 6.92 0 16.12 1.975 16.12 19.057 0 12.742-5.187 19.478-15 19.478zm33.86-54.987h-16.65a1.51 1.51 0 0 0-1.51 1.51v3.72c-3.111-2.896-9.328-6.909-19.897-6.909-19.816 0-33.13 14.888-33.13 37.049 0 22.142 13.796 37.606 33.55 37.606 7.833 0 13.88-2.256 18.358-6.877v3.689c0 13.78-11.677 15.84-18.638 15.84-10.256 0-18.95-4.406-19.036-4.452a1.51 1.51 0 0 0-2.097.792l-5.317 13.573a1.51 1.51 0 0 0 .698 1.884c7.472 3.965 17.204 6.332 26.032 6.332 10.43 0 19.916-2.836 26.708-7.985 8.137-6.167 12.438-15.588 12.438-27.244V318.89a1.51 1.51 0 0 0-1.51-1.51M550.766 332.433c7.06 0 11.749 4.483 12.52 11.81h-27.708c1.993-7.533 7.445-11.81 15.188-11.81zm.42-16.732c-22.225 0-37.748 15.984-37.748 38.868 0 22.52 16.759 38.865 39.846 38.865 18.158 0 29.251-10.187 29.714-10.62.5-.469.623-1.216.298-1.818l-6.856-12.733a1.507 1.507 0 0 0-1.054-.768 1.497 1.497 0 0 0-1.259.34c-.088.074-8.832 7.47-19.584 7.47-12.618 0-18.38-8.21-19.688-15.869h47.531a1.51 1.51 0 0 0 1.504-1.378c.017-.196.426-4.847.426-6.988 0-21.155-13.314-35.369-33.13-35.369M634.271 289.281c-.103-.018-2.551-.442-6.279-.442-9.204 0-30.612 2.723-30.612 27.952v1.71h-7.304c-.834 0-1.51.675-1.51 1.51v14.13c0 .834.676 1.51 1.51 1.51h7.304v54.594c0 .835.676 1.51 1.51 1.51h17.77a1.51 1.51 0 0 0 1.509-1.51V335.65h13.74a1.51 1.51 0 0 0 1.51-1.51v-14.13a1.51 1.51 0 0 0-1.51-1.51h-13.74v-1.289c0-6.703 4.104-10.102 12.202-10.102 1.921 0 3.354.252 3.37.255a1.512 1.512 0 0 0 1.777-1.486v-15.11c0-.733-.525-1.36-1.247-1.487M671.935 102.188c-11.695-25.493-66.088-21.078-66.602-20.957l-.035.009a118.872 118.872 0 0 1 7.7 6.083c13.998 2.444 31.59 6.57 35.956 15.543 1.923 3.952 1.276 8.72-1.976 14.574-1.121 2.017-2.998 4.128-5.515 6.278-6.048 5.167-15.876 10.57-28.405 15.494-.86.338-1.787.684-2.762 1.037-22.506 8.126-74.062 19.758-74.584 19.876-2.369.513-46.904 10.253-81.658 23.97-9.384 3.704-18.058 7.696-24.993 11.876a97.343 97.343 0 0 0-7.976 5.4c-4.692 3.519-10.243 8.333-14.734 14.127-9.095 11.735-11.107 24.032-5.819 35.56 8.603 18.753 40.315 21.323 56.683 21.323 5.88 0 9.782-.333 9.918-.364l.037-.01a118.2 118.2 0 0 1-7.702-6.084c-13.998-2.442-31.59-6.57-35.955-15.542-1.922-3.952-1.276-8.719 1.976-14.573 1.12-2.017 2.999-4.128 5.515-6.28 6.048-5.166 15.876-10.568 28.405-15.492.861-.338 1.787-.685 2.762-1.038 21.572-7.796 69.442-18.713 74.283-19.81l.302-.066c2.369-.513 46.91-10.262 81.657-23.972 9.386-3.704 18.06-7.695 24.992-11.873a97.442 97.442 0 0 0 7.977-5.4c4.693-3.52 10.244-8.332 14.735-14.128 9.094-11.735 11.106-24.031 5.818-35.56"/><path d="M618.68 173.07c.054 1.178.088 2.362.088 3.554a82.216 82.216 0 0 1-3.946 25.19c-10.675 33.226-41.863 57.344-78.588 57.344-21.169 0-40.493-8.018-55.114-21.17a83.158 83.158 0 0 1-17.17-21.592c-.61.211-1.205.42-1.779.628-.975.353-1.9.7-2.762 1.038-11.377 4.47-20.523 9.966-26.64 14.809a117.097 117.097 0 0 0 5.536 9.166 118.192 118.192 0 0 0 7.507 10.017 118.458 118.458 0 0 0 13.656 13.87c2.48 2.132 5.05 4.16 7.702 6.084 19.403 14.073 43.261 22.377 69.064 22.377 62.937 0 114.34-49.373 117.596-111.5a118.28 118.28 0 0 0-1.717-27.265c-3.289 2.453-6.958 4.628-8.708 5.683-6.865 4.138-15.443 8.093-24.726 11.767M429.061 191.945c6.87-4.14 15.446-8.096 24.727-11.77a77.138 77.138 0 0 1-.088-3.551 82.193 82.193 0 0 1 4.036-25.459c10.757-33.086 41.871-57.075 78.498-57.075 21.09 0 40.346 7.96 54.948 21.024a83.19 83.19 0 0 1 17.334 21.737c.61-.21 1.206-.421 1.78-.628.975-.353 1.901-.7 2.762-1.037 11.483-4.513 20.512-10.031 26.598-14.9a117.404 117.404 0 0 0-5.451-9.01 118.502 118.502 0 0 0-7.76-10.33 118.535 118.535 0 0 0-13.447-13.623 118.872 118.872 0 0 0-7.7-6.083c-19.403-14.073-43.262-22.378-69.064-22.378-62.776 0-114.072 49.12-117.566 111.021a119.69 119.69 0 0 0-.196 6.74c0 7.16.652 14.166 1.877 20.973l.009-.007c3.315-2.486 6.933-4.577 8.703-5.644"/></g></svg>